<svg width="300" height="223" viewBox="0 0 300 223" fill="none" xmlns="http://www.w3.org/2000/svg">
<path d="M96.2422 60.5432H92.1915V56.4919H89.3164V60.5432H85.2664V63.4178H89.3164V67.4691H92.1915V63.4178H96.2422V60.5432Z" fill="#E2E6FF"/>
<path d="M34.9545 25.6439H32.0171V22.7065H29.9319V25.6439H26.9951V27.7292H29.9319V30.6672H32.0171V27.7292H34.9545V25.6439Z" fill="#E2E6FF"/>
<path d="M89.2464 8.94756H86.3084V6.00952H84.2238V8.94756H81.2864V11.0322H84.2238V13.9702H86.3084V11.0322H89.2464V8.94756Z" fill="#E2E6FF"/>
<path d="M270.276 62.8942H267.338V59.9562H265.254V62.8942H262.316V64.9788H265.254V67.9169H267.338V64.9788H270.276V62.8942Z" fill="#E2E6FF"/>
<path d="M280.58 42.8859H276.529V38.8346H273.655V42.8859H269.604V45.7604H273.655V49.8117H276.529V45.7604H280.58V42.8859Z" fill="#E2E6FF"/>
<path d="M24.6201 70.1635H20.5695V66.1122H17.6943V70.1635H13.6443V73.038H17.6943V77.0893H20.5695V73.038H24.6201V70.1635Z" fill="#E2E6FF"/>
<path d="M289.358 151.972H286.42V149.034H284.335V151.972H281.398V154.057H284.335V156.995H286.42V154.057H289.358V151.972Z" fill="#E2E6FF"/>
<path d="M106.11 5.06736C107.509 5.06736 108.644 3.933 108.644 2.53368C108.644 1.13437 107.509 0 106.11 0C104.711 0 103.576 1.13437 103.576 2.53368C103.576 3.933 104.711 5.06736 106.11 5.06736Z" fill="#D0DBF7"/>
<path d="M211.019 11.8208C211.019 12.5595 210.421 13.1589 209.681 13.1589C208.942 13.1589 208.344 12.5602 208.344 11.8208C208.344 11.0821 208.942 10.4827 209.681 10.4827C210.421 10.4833 211.019 11.0821 211.019 11.8208Z" fill="#D0DBF7"/>
<path d="M268.829 19.0752C268.829 20.4742 267.695 21.6089 266.296 21.6089C264.897 21.6089 263.762 20.4749 263.762 19.0752C263.762 17.6762 264.896 16.5415 266.296 16.5415C267.695 16.5415 268.829 17.6762 268.829 19.0752Z" fill="#D0DBF7"/>
<path d="M14.9825 95.381C14.9825 96.1198 14.3837 96.7192 13.6444 96.7192C12.9056 96.7192 12.3069 96.1204 12.3069 95.381C12.3069 94.6423 12.9056 94.0436 13.6444 94.0436C14.3831 94.0429 14.9825 94.6417 14.9825 95.381Z" fill="#D0DBF7"/>
<path d="M298.742 141.506C298.742 142.905 297.608 144.039 296.209 144.039C294.81 144.039 293.675 142.905 293.675 141.506C293.675 140.107 294.809 138.972 296.209 138.972C297.608 138.973 298.742 140.107 298.742 141.506Z" fill="#D0DBF7"/>
<path d="M16.1724 49.0827C17.5717 49.0827 18.706 47.9484 18.706 46.5491C18.706 45.1497 17.5717 44.0154 16.1724 44.0154C14.773 44.0154 13.6387 45.1497 13.6387 46.5491C13.6387 47.9484 14.773 49.0827 16.1724 49.0827Z" fill="#D0DBF7"/>
<path d="M150.002 222.129C232.846 222.129 300.005 213.178 300.005 202.136C300.005 191.094 232.846 182.142 150.002 182.142C67.1583 182.142 0 191.094 0 202.136C0 213.178 67.1583 222.129 150.002 222.129Z" fill="#EDF0FC"/>
<path d="M273.66 143.216C273.66 143.216 246.027 155.232 238.094 165.725C230.161 176.218 236.677 188.668 236.677 188.668C236.677 188.668 250.191 192.516 258.852 182.616C267.513 172.715 273.66 143.216 273.66 143.216Z" fill="#F9AB43"/>
<mask id="mask0_7031_2060" style="mask-type:luminance" maskUnits="userSpaceOnUse" x="234" y="143" width="40" height="47">
<path d="M273.66 143.216C273.66 143.216 246.027 155.232 238.094 165.725C230.161 176.218 236.677 188.668 236.677 188.668C236.677 188.668 250.191 192.516 258.852 182.616C267.513 172.715 273.66 143.216 273.66 143.216Z" fill="white"/>
</mask>
<g mask="url(#mask0_7031_2060)">
<path d="M281.147 160.429C282.286 160.253 283.424 160.077 284.563 159.902C285.148 159.812 285.057 158.894 284.468 158.984C276.436 160.224 268.404 161.463 260.371 162.702C259.619 162.818 258.867 162.934 258.115 163.05C258.74 162.282 259.365 161.513 259.991 160.745C262.18 158.054 264.37 155.363 266.56 152.671C274.526 151.442 282.493 150.214 290.458 148.984C291.597 148.809 292.736 148.633 293.875 148.457C294.46 148.367 294.368 147.449 293.781 147.539C285.748 148.779 277.716 150.018 269.683 151.257C268.931 151.373 268.179 151.489 267.427 151.605C268.639 150.116 269.851 148.627 271.063 147.137C272.285 145.635 273.507 144.133 274.729 142.632C275.289 141.943 275.984 141.262 276.457 140.508C276.478 140.474 276.51 140.444 276.535 140.412C276.91 139.952 276.195 139.369 275.82 139.83C274.353 141.633 272.885 143.437 271.418 145.24C269.849 147.168 268.281 149.096 266.712 151.024C266.313 143.299 265.913 135.573 265.514 127.847C265.454 126.696 265.394 125.545 265.335 124.395C265.304 123.8 264.387 123.897 264.418 124.489C264.838 132.606 265.258 140.722 265.677 148.839C265.733 149.923 265.789 151.007 265.845 152.09C264.178 154.14 262.51 156.189 260.843 158.238C259.695 159.649 258.548 161.059 257.4 162.47C257 154.744 256.601 147.018 256.201 139.293C256.142 138.142 256.082 136.991 256.022 135.84C255.992 135.246 255.074 135.343 255.105 135.934C255.525 144.051 255.945 152.167 256.365 160.284C256.42 161.368 256.477 162.452 256.532 163.535C253.717 166.995 250.902 170.454 248.087 173.915C247.687 166.189 247.288 158.463 246.888 150.738C246.829 149.587 246.769 148.436 246.709 147.285C246.679 146.691 245.761 146.788 245.792 147.379C246.212 155.496 246.632 163.612 247.051 171.729C247.107 172.813 247.163 173.897 247.219 174.98C244.404 178.44 241.589 181.899 238.774 185.36C238.374 177.634 237.975 169.908 237.575 162.183C237.515 161.032 237.456 159.881 237.396 158.73C237.366 158.136 236.448 158.233 236.479 158.824C236.899 166.941 237.318 175.057 237.738 183.174C237.794 184.258 237.85 185.342 237.906 186.425C237.573 186.834 237.241 187.243 236.908 187.652C235.686 189.154 234.464 190.656 233.242 192.157C232.681 192.846 231.987 193.527 231.514 194.281C231.492 194.315 231.461 194.346 231.435 194.377C231.061 194.837 231.775 195.421 232.151 194.959C233.618 193.156 235.085 191.352 236.553 189.549C237.242 188.702 237.931 187.854 238.621 187.007C246.587 185.778 254.553 184.549 262.519 183.32C263.658 183.144 264.797 182.969 265.935 182.793C266.521 182.703 266.429 181.785 265.841 181.875C257.808 183.115 249.776 184.354 241.744 185.594C240.992 185.71 240.24 185.826 239.487 185.942C242.034 182.812 244.581 179.682 247.127 176.552C247.396 176.222 247.664 175.892 247.933 175.562C255.899 174.333 263.865 173.104 271.831 171.875C272.969 171.699 274.109 171.524 275.247 171.347C275.832 171.257 275.741 170.339 275.153 170.43C267.121 171.669 259.089 172.908 251.056 174.148C250.304 174.264 249.552 174.38 248.8 174.496C251.615 171.036 254.43 167.577 257.245 164.116C265.215 162.887 273.181 161.658 281.147 160.429Z" fill="#EB725F"/>
</g>
<path opacity="0.1" d="M268.511 162.355C267.581 163.677 266.598 164.989 265.546 166.281C256.397 177.525 244.985 184.581 235.523 185.808C236.115 187.589 236.677 188.667 236.677 188.667C236.677 188.667 250.191 192.516 258.852 182.615C262.662 178.261 265.984 170.116 268.511 162.355Z" fill="#0046A0"/>
<path d="M296.209 169.853C296.209 169.853 267.467 170.083 255.398 175.307C243.331 180.533 241.827 191.673 241.827 191.673C241.827 191.673 250.614 198.684 262.946 194.118C275.279 189.554 296.209 169.853 296.209 169.853Z" fill="#EB725F"/>
<mask id="mask1_7031_2060" style="mask-type:luminance" maskUnits="userSpaceOnUse" x="241" y="169" width="56" height="27">
<path d="M296.209 169.853C296.209 169.853 267.467 170.083 255.398 175.307C243.331 180.533 241.827 191.673 241.827 191.673C241.827 191.673 250.614 198.684 262.946 194.118C275.279 189.554 296.209 169.853 296.209 169.853Z" fill="white"/>
</mask>
<g mask="url(#mask1_7031_2060)">
<path d="M292.905 184.783C293.917 185.008 294.928 185.232 295.94 185.457C296.46 185.572 296.883 184.872 296.361 184.756C289.227 183.172 282.093 181.588 274.96 180.004C274.291 179.856 273.624 179.707 272.956 179.559C273.875 179.19 274.796 178.821 275.715 178.452C278.935 177.16 282.155 175.868 285.375 174.576C292.45 176.147 299.525 177.717 306.599 179.289C307.611 179.513 308.622 179.738 309.634 179.963C310.154 180.078 310.578 179.378 310.055 179.262C302.921 177.678 295.788 176.093 288.654 174.51C287.986 174.361 287.318 174.213 286.65 174.065C288.432 173.349 290.215 172.634 291.997 171.919C293.794 171.198 295.591 170.477 297.387 169.756C298.211 169.426 299.139 169.142 299.928 168.737C299.963 168.719 300.005 168.706 300.043 168.69C300.594 168.469 300.335 167.82 299.783 168.042C297.625 168.908 295.468 169.774 293.31 170.639C291.003 171.565 288.696 172.491 286.39 173.416C290.255 167.633 294.12 161.85 297.985 156.067C298.56 155.206 299.136 154.344 299.712 153.483C300.009 153.038 299.219 152.824 298.923 153.267C294.862 159.343 290.802 165.418 286.741 171.494C286.199 172.305 285.657 173.117 285.115 173.928C282.663 174.912 280.211 175.896 277.759 176.879C276.072 177.557 274.384 178.234 272.696 178.911C276.561 173.128 280.426 167.345 284.291 161.562C284.866 160.701 285.442 159.839 286.018 158.978C286.314 158.533 285.525 158.319 285.228 158.762C281.168 164.838 277.108 170.913 273.047 176.988C272.505 177.8 271.963 178.611 271.421 179.422C267.281 181.083 263.141 182.744 259.002 184.405C262.867 178.623 266.732 172.839 270.597 167.056C271.172 166.195 271.748 165.333 272.323 164.472C272.621 164.028 271.83 163.814 271.534 164.256C267.474 170.332 263.413 176.408 259.353 182.483C258.811 183.295 258.269 184.106 257.727 184.917C253.587 186.577 249.447 188.239 245.308 189.9C249.172 184.117 253.038 178.334 256.902 172.551C257.478 171.69 258.054 170.828 258.629 169.967C258.927 169.522 258.136 169.308 257.84 169.751C253.78 175.826 249.719 181.902 245.659 187.978C245.117 188.789 244.575 189.6 244.032 190.412C243.543 190.608 243.054 190.804 242.564 191.001C240.767 191.722 238.97 192.443 237.174 193.164C236.35 193.494 235.422 193.778 234.633 194.183C234.597 194.201 234.555 194.214 234.517 194.229C233.966 194.45 234.226 195.099 234.777 194.877C236.935 194.011 239.093 193.146 241.25 192.28C242.264 191.873 243.278 191.466 244.292 191.059C251.367 192.63 258.441 194.201 265.516 195.772C266.528 195.996 267.539 196.221 268.55 196.446C269.07 196.561 269.494 195.861 268.971 195.745C261.838 194.161 254.704 192.577 247.57 190.993C246.902 190.845 246.234 190.696 245.566 190.548C249.311 189.045 253.056 187.542 256.801 186.04C257.195 185.882 257.59 185.723 257.985 185.565C265.06 187.136 272.135 188.707 279.21 190.278C280.221 190.503 281.233 190.727 282.244 190.952C282.764 191.067 283.188 190.367 282.666 190.251C275.532 188.667 268.398 187.083 261.264 185.499C260.596 185.351 259.928 185.202 259.26 185.055C263.4 183.394 267.54 181.733 271.679 180.072C278.756 181.642 285.83 183.212 292.905 184.783Z" fill="#FFCF74"/>
</g>
<path opacity="0.1" d="M281.695 182.275C280.231 182.954 278.729 183.61 277.182 184.23C263.728 189.629 250.724 191.257 242.447 189.221C241.959 190.709 241.826 191.673 241.826 191.673C241.826 191.673 250.613 198.684 262.946 194.118C268.371 192.111 275.457 187.175 281.695 182.275Z" fill="#0046A0"/>
<path d="M8.07739 110.046C8.07739 110.046 25.0524 134.943 36.8441 140.772C48.6364 146.602 59.6465 137.872 59.6465 137.872C59.6465 137.872 60.8985 123.876 49.552 117.221C38.2055 110.566 8.07739 110.046 8.07739 110.046Z" fill="#F9AB43"/>
<mask id="mask2_7031_2060" style="mask-type:luminance" maskUnits="userSpaceOnUse" x="8" y="110" width="52" height="33">
<path d="M8.07739 110.046C8.07739 110.046 25.0524 134.943 36.8441 140.772C48.6364 146.602 59.6465 137.872 59.6465 137.872C59.6465 137.872 60.8985 123.876 49.552 117.221C38.2055 110.566 8.07739 110.046 8.07739 110.046Z" fill="white"/>
</mask>
<g mask="url(#mask2_7031_2060)">
<path d="M23.5859 99.4707C23.2003 98.3846 22.8148 97.2986 22.4285 96.2132C22.2303 95.6552 21.3457 95.917 21.5453 96.4775C24.2656 104.136 26.9859 111.795 29.7062 119.454C29.9609 120.171 30.2156 120.888 30.4702 121.605C29.598 121.135 28.7258 120.664 27.8542 120.194C24.8009 118.546 21.7475 116.899 18.6941 115.251C15.9965 107.656 13.2982 100.06 10.6006 92.4645C10.215 91.3784 9.82948 90.293 9.44327 89.207C9.24498 88.6491 8.36046 88.9109 8.56005 89.4714C11.2803 97.1301 14.0007 104.789 16.721 112.448C16.9756 113.165 17.2303 113.882 17.485 114.599C15.795 113.687 14.105 112.775 12.415 111.863C10.7114 110.943 9.00717 110.025 7.30357 109.105C6.52209 108.683 5.7231 108.129 4.89366 107.805C4.85608 107.79 4.81979 107.766 4.78415 107.746C4.26186 107.464 3.82317 108.276 4.3461 108.558C6.39184 109.662 8.43822 110.766 10.484 111.87C12.6716 113.05 14.8586 114.231 17.0463 115.411C9.5314 117.249 2.01719 119.087 -5.49702 120.925C-6.61611 121.199 -7.73586 121.473 -8.85495 121.746C-9.43297 121.888 -9.16599 122.771 -8.59057 122.63C-0.695986 120.699 7.1986 118.768 15.0938 116.837C16.1481 116.579 17.2018 116.321 18.2561 116.063C20.5811 117.318 22.9068 118.572 25.2318 119.827C26.8324 120.69 28.4323 121.554 30.0328 122.417C22.518 124.255 15.0038 126.093 7.48955 127.931C6.37045 128.205 5.25071 128.478 4.13161 128.752C3.5536 128.894 3.82057 129.777 4.396 129.636C12.2906 127.705 20.1852 125.774 28.0804 123.843C29.1347 123.585 30.1883 123.327 31.2426 123.07C35.1682 125.188 39.0938 127.306 43.0187 129.424C35.5045 131.262 27.9897 133.1 20.4755 134.938C19.3564 135.211 18.2366 135.485 17.1175 135.759C16.5395 135.9 16.8065 136.783 17.3819 136.642C25.2765 134.711 33.1711 132.78 41.0663 130.849C42.1206 130.591 43.1743 130.333 44.2286 130.075C48.1541 132.193 52.0797 134.311 56.0047 136.429C48.4905 138.268 40.9756 140.105 33.4614 141.943C32.3423 142.217 31.2226 142.491 30.1035 142.765C29.5254 142.906 29.7924 143.789 30.3678 143.648C38.2624 141.717 46.157 139.786 54.0522 137.855C55.1065 137.597 56.1602 137.339 57.2145 137.081C57.6784 137.331 58.1424 137.582 58.6064 137.832C60.31 138.752 62.0142 139.671 63.7178 140.59C64.4993 141.012 65.2983 141.567 66.1277 141.891C66.1653 141.906 66.2016 141.93 66.2372 141.95C66.7595 142.232 67.1982 141.42 66.6753 141.138C64.6295 140.034 62.5832 138.931 60.5374 137.826C59.5758 137.307 58.6142 136.789 57.6532 136.27C54.9556 128.675 52.2573 121.079 49.5597 113.484C49.1741 112.398 48.7885 111.312 48.4023 110.226C48.204 109.668 47.3195 109.93 47.5191 110.491C50.2394 118.149 52.9597 125.808 55.68 133.467C55.9347 134.184 56.1893 134.901 56.444 135.618C52.893 133.702 49.3419 131.786 45.7909 129.87C45.4163 129.667 45.0424 129.465 44.6679 129.264C41.9703 121.669 39.272 114.073 36.5744 106.477C36.1888 105.391 35.8033 104.305 35.4171 103.22C35.2188 102.662 34.3342 102.924 34.5338 103.484C37.2541 111.143 39.9744 118.802 42.6947 126.461C42.9494 127.178 43.2041 127.895 43.4587 128.612C39.5332 126.494 35.6076 124.376 31.6826 122.258C28.9811 114.662 26.2835 107.066 23.5859 99.4707Z" fill="#EB725F"/>
</g>
<path opacity="0.1" d="M27.8428 111.522C29.315 112.188 30.7879 112.91 32.2544 113.701C45.0122 120.584 54.0783 130.475 57.0546 139.54C58.6928 138.624 59.6473 137.871 59.6473 137.871C59.6473 137.871 60.8992 123.876 49.5527 117.221C44.5618 114.293 35.9382 112.554 27.8428 111.522Z" fill="#0046A0"/>
<path d="M30.0244 82.911C30.0244 82.911 35.6283 111.104 43.0194 121.98C50.4105 132.858 61.6351 132.25 61.6351 132.25C61.6351 132.25 66.8781 122.307 60.0858 111.046C53.2934 99.7849 30.0244 82.911 30.0244 82.911Z" fill="#EB725F"/>
<mask id="mask3_7031_2060" style="mask-type:luminance" maskUnits="userSpaceOnUse" x="30" y="82" width="34" height="51">
<path d="M30.0244 82.911C30.0244 82.911 35.6283 111.104 43.0194 121.98C50.4105 132.858 61.6351 132.25 61.6351 132.25C61.6351 132.25 66.8781 122.307 60.0858 111.046C53.2934 99.7849 30.0244 82.911 30.0244 82.911Z" fill="white"/>
</mask>
<g mask="url(#mask3_7031_2060)">
<path d="M45.31 83.3633C45.3411 82.3278 45.3729 81.2923 45.404 80.2568C45.4202 79.7248 44.6523 79.4397 44.6361 79.9743C44.4151 87.2785 44.1935 94.5828 43.9726 101.887C43.9518 102.571 43.9311 103.255 43.9103 103.939C43.3757 103.104 42.8411 102.27 42.3065 101.435C40.4351 98.5142 38.563 95.5924 36.6916 92.6712C36.9113 85.4272 37.1303 78.1839 37.35 70.9399C37.3811 69.9044 37.4129 68.8689 37.444 67.8334C37.4602 67.3014 36.6923 67.0162 36.6761 67.5508C36.4551 74.8551 36.2335 82.1593 36.0125 89.4629C35.9918 90.1466 35.9711 90.8309 35.9503 91.5145C34.9142 89.8978 33.8787 88.281 32.8425 86.6636C31.7979 85.0332 30.754 83.4035 29.7094 81.7731C29.2306 81.0253 28.7782 80.1667 28.2326 79.4675C28.208 79.4358 28.1873 79.3969 28.1659 79.3632C27.8458 78.8636 27.2574 79.2394 27.5775 79.7397C28.8314 81.6973 30.0859 83.6549 31.3398 85.6125C32.6805 87.7056 34.0212 89.798 35.3619 91.891C28.9577 89.1765 22.5542 86.4614 16.15 83.7469C15.1962 83.3426 14.2423 82.9382 13.2885 82.5339C12.796 82.3252 12.7338 83.1417 13.2243 83.3491C19.9525 86.2009 26.68 89.0528 33.4082 91.9053C34.3063 92.2863 35.2051 92.6667 36.1032 93.0477C37.5282 95.2723 38.9538 97.4968 40.3794 99.7214C41.3605 101.253 42.3415 102.783 43.322 104.314C36.9178 101.6 30.5142 98.8849 24.1101 96.1704C23.1562 95.766 22.2023 95.3617 21.2485 94.9573C20.756 94.7487 20.6938 95.5652 21.1843 95.7725C27.9125 98.6244 34.6401 101.476 41.3682 104.329C42.2664 104.71 43.1651 105.09 44.0633 105.471C46.4693 109.227 48.876 112.983 51.282 116.739C44.8778 114.024 38.4743 111.31 32.0701 108.595C31.1162 108.19 30.1624 107.786 29.2085 107.381C28.716 107.173 28.6538 107.989 29.1444 108.197C35.8726 111.049 42.6001 113.901 49.3283 116.753C50.2264 117.134 51.1252 117.514 52.0233 117.895C54.4293 121.651 56.836 125.407 59.242 129.163C52.8378 126.448 46.4343 123.734 40.0301 121.019C39.0763 120.614 38.1224 120.21 37.1686 119.806C36.6761 119.597 36.6139 120.413 37.1044 120.621C43.8326 123.473 50.5601 126.324 57.2883 129.177C58.1864 129.558 59.0852 129.938 59.9833 130.319C60.2678 130.763 60.5523 131.207 60.8368 131.652C61.8813 133.282 62.9253 134.912 63.9698 136.542C64.4487 137.29 64.901 138.148 65.4473 138.848C65.4719 138.879 65.4926 138.918 65.514 138.952C65.8341 139.452 66.4225 139.076 66.1024 138.576C64.8485 136.618 63.594 134.66 62.3401 132.703C61.7504 131.783 61.1614 130.863 60.5717 129.943C60.7914 122.699 61.0104 115.456 61.2301 108.212C61.2612 107.176 61.2929 106.141 61.324 105.105C61.3402 104.573 60.5724 104.288 60.5562 104.822C60.3352 112.127 60.1136 119.431 59.8926 126.735C59.8719 127.418 59.8511 128.103 59.8304 128.786C57.6538 125.389 55.4771 121.991 53.3005 118.594C53.0711 118.235 52.8417 117.878 52.6123 117.519C52.832 110.275 53.051 103.032 53.2707 95.7881C53.3018 94.7526 53.3336 93.7171 53.3647 92.6816C53.3809 92.1496 52.613 91.8644 52.5968 92.399C52.3758 99.7033 52.1542 107.008 51.9332 114.311C51.9125 114.995 51.8918 115.679 51.871 116.363C49.465 112.607 47.0583 108.851 44.6523 105.095C44.8713 97.8513 45.0904 90.6073 45.31 83.3633Z" fill="#FFCF74"/>
</g>
<path opacity="0.1" d="M44.9434 94.844C45.8849 96.1555 46.8102 97.5086 47.709 98.9115C55.5291 111.118 59.5616 123.588 59.1106 132.1C60.6638 132.302 61.6358 132.251 61.6358 132.251C61.6358 132.251 66.8788 122.308 60.0865 111.047C57.0985 106.093 50.9238 100.055 44.9434 94.844Z" fill="#0046A0"/>
<path d="M247.146 197.997C247.146 199.961 245.539 201.568 243.576 201.568H56.4284C54.4643 201.568 52.8579 199.961 52.8579 197.997V76.95C52.8579 74.9859 54.465 73.3789 56.4284 73.3789H243.576C245.54 73.3789 247.146 74.9859 247.146 76.95V197.997Z" fill="#6E7FDD"/>
<path d="M237.824 83.3737H62.1807V195.014H237.824V83.3737Z" fill="#D0DBF7"/>
<path d="M40.2349 189.83V200.143C40.2349 202.363 42.0506 204.178 44.27 204.178H255.736C257.955 204.178 259.771 202.363 259.771 200.143V189.83H40.2349Z" fill="#6E7FDD"/>
<path d="M126.1 189.373V196.73C126.1 197.387 126.638 197.924 127.295 197.924H172.709C173.367 197.924 173.904 197.387 173.904 196.73V189.373H126.1Z" fill="#92A6F4"/>
<path d="M224.586 92.8831H72.2073V180.984H224.586V92.8831Z" fill="white"/>
<path d="M224.586 92.8831H72.2073V101.373H224.586V92.8831Z" fill="#E2E6FF"/>
<path d="M79.6139 97.3238C79.6139 98.3969 78.7443 99.2665 77.6712 99.2665C76.5981 99.2665 75.7285 98.3969 75.7285 97.3238C75.7285 96.2507 76.5981 95.3811 77.6712 95.3811C78.7443 95.3811 79.6139 96.2507 79.6139 97.3238Z" fill="#EB725F"/>
<path d="M86.1554 97.3238C86.1554 98.3969 85.2858 99.2665 84.2127 99.2665C83.1396 99.2665 82.27 98.3969 82.27 97.3238C82.27 96.2507 83.1396 95.3811 84.2127 95.3811C85.2858 95.3811 86.1554 96.2507 86.1554 97.3238Z" fill="#F9AB43"/>
<path d="M92.6969 97.3238C92.6969 98.3969 91.8273 99.2665 90.7542 99.2665C89.6811 99.2665 88.8115 98.3969 88.8115 97.3238C88.8115 96.2507 89.6811 95.3811 90.7542 95.3811C91.8273 95.3811 92.6969 96.2507 92.6969 97.3238Z" fill="#6E7FDD"/>
<path d="M146.057 145.953C146.057 143.512 147.026 141.609 148.965 140.245L149.898 139.599C150.784 139.025 151.4 138.553 151.747 138.181C152.093 137.811 152.268 137.35 152.268 136.799C152.268 135.411 151.106 134.717 148.785 134.717C147.708 134.717 146.595 134.861 145.446 135.148C144.298 135.435 143.208 135.843 142.179 136.368V130.84C144.381 129.835 146.846 129.333 149.574 129.333C152.518 129.333 154.852 129.949 156.574 131.182C158.298 132.414 159.159 134.119 159.159 136.296C159.159 137.517 158.884 138.504 158.334 139.258C157.783 140.011 156.85 140.855 155.534 141.788C154.648 142.435 154.002 142.931 153.595 143.279C153.188 143.626 152.883 144.014 152.68 144.445C152.477 144.876 152.375 145.403 152.375 146.024V146.707H146.057V145.953ZM146.793 154.55C146.158 153.916 145.841 153.132 145.841 152.198C145.841 151.241 146.158 150.451 146.793 149.829C147.426 149.207 148.223 148.896 149.18 148.896C150.114 148.896 150.909 149.213 151.567 149.847C152.225 150.482 152.554 151.265 152.554 152.199C152.554 153.132 152.224 153.916 151.567 154.551C150.909 155.184 150.113 155.502 149.18 155.502C148.223 155.501 147.427 155.184 146.793 154.55Z" fill="#D0DBF7"/>
<path d="M150.002 172.071C133.139 172.071 119.419 158.352 119.419 141.488C119.419 124.625 133.139 110.906 150.002 110.906C166.866 110.906 180.585 124.625 180.585 141.488C180.585 158.352 166.866 172.071 150.002 172.071ZM150.002 112.786C134.175 112.786 121.3 125.661 121.3 141.488C121.3 157.314 134.175 170.19 150.002 170.19C165.828 170.19 178.704 157.314 178.704 141.488C178.704 125.661 165.828 112.786 150.002 112.786Z" fill="#D0DBF7"/>
<path d="M287.172 133.318C287.172 135.155 285.67 136.658 283.832 136.658H192.501C190.664 136.658 189.162 135.155 189.162 133.318V115.247C189.162 113.41 190.664 111.907 192.501 111.907H283.832C285.669 111.907 287.172 113.41 287.172 115.247V133.318Z" fill="#EB725F"/>
<path d="M219.185 115.215H217.85V133.35H219.185V115.215Z" fill="#FFCF74"/>
<path d="M211.019 127.88L206.461 125.569C206.783 124.644 206.798 123.646 206.489 122.699C206.115 121.557 205.319 120.628 204.246 120.084C203.174 119.54 201.954 119.446 200.811 119.82C199.669 120.194 198.74 120.991 198.196 122.062C197.652 123.135 197.558 124.355 197.932 125.498C198.306 126.641 199.103 127.569 200.175 128.113C201.247 128.656 202.467 128.75 203.61 128.377C204.556 128.067 205.352 127.464 205.908 126.659L210.467 128.97L211.019 127.88ZM200.728 127.022C199.947 126.626 199.366 125.95 199.094 125.117C198.822 124.285 198.89 123.396 199.286 122.615C199.682 121.834 200.358 121.254 201.191 120.982C202.024 120.709 202.912 120.777 203.693 121.173C204.474 121.569 205.054 122.246 205.327 123.079C205.599 123.911 205.531 124.8 205.134 125.581C204.738 126.362 204.062 126.942 203.229 127.215C202.398 127.487 201.509 127.419 200.728 127.022Z" fill="white"/>
<path d="M200.261 122.836L200.915 123.167C201.247 122.512 202.051 122.249 202.706 122.582L203.038 121.928C202.022 121.413 200.776 121.819 200.261 122.836Z" fill="white"/>
<path d="M106.111 138.993H16.1721V196.207H106.111V138.993Z" fill="#F5F9FF"/>
<path d="M106.111 138.993H16.1721V146.129H106.111V138.993Z" fill="#E2E6FF"/>
<path d="M20.765 144.359C21.6669 144.359 22.398 143.628 22.398 142.726C22.398 141.824 21.6669 141.093 20.765 141.093C19.8632 141.093 19.1321 141.824 19.1321 142.726C19.1321 143.628 19.8632 144.359 20.765 144.359Z" fill="#EB725F"/>
<path d="M27.897 142.726C27.897 143.628 27.1661 144.359 26.2641 144.359C25.362 144.359 24.6311 143.628 24.6311 142.726C24.6311 141.824 25.362 141.093 26.2641 141.093C27.1661 141.093 27.897 141.824 27.897 142.726Z" fill="#F9AB43"/>
<path d="M31.7628 144.359C32.6647 144.359 33.3958 143.628 33.3958 142.726C33.3958 141.824 32.6647 141.093 31.7628 141.093C30.861 141.093 30.1299 141.824 30.1299 142.726C30.1299 143.628 30.861 144.359 31.7628 144.359Z" fill="#6E7FDD"/>
<path d="M29.4219 170.386C30.7438 168.79 32.0651 167.543 33.387 166.404C34.7083 165.248 36.0302 164.282 37.3521 163.363C39.9953 161.576 42.6385 160.184 45.2817 159.12C50.5681 156.976 55.8544 156.049 61.1415 156.025C66.4279 156.02 71.7149 156.942 77.0013 159.079C79.6445 160.141 82.2877 161.537 84.9308 163.328C86.2521 164.251 87.574 165.221 88.896 166.382C90.2172 167.525 91.5392 168.78 92.8611 170.386C91.5392 171.991 90.2179 173.246 88.896 174.389C87.574 175.551 86.2528 176.52 84.9308 177.444C82.2877 179.234 79.6445 180.631 77.0013 181.693C71.7149 183.829 66.4279 184.751 61.1415 184.746C55.8551 184.722 50.5687 183.795 45.2817 181.652C42.6385 180.587 39.9953 179.196 37.3521 177.408C36.0308 176.491 34.7089 175.523 33.387 174.367C32.0651 173.229 30.7438 171.982 29.4219 170.386Z" fill="#FFCF74"/>
<path d="M68.8566 171.19C64.6693 171.19 61.2744 167.795 61.2744 163.608C61.2744 161.924 61.8304 160.374 62.759 159.115C62.2289 159.039 61.6917 158.987 61.1409 158.987C54.8456 158.987 49.7419 164.091 49.7419 170.386C49.7419 176.682 54.8456 181.785 61.1409 181.785C67.4362 181.785 72.5399 176.682 72.5399 170.386C72.5399 170.337 72.5334 170.288 72.5321 170.237C71.4435 170.843 70.1915 171.19 68.8566 171.19Z" fill="#EB725F"/>
<path d="M29.4219 170.386C31.2693 168.032 33.4809 165.97 35.8267 164.083C38.1971 162.225 40.736 160.55 43.4485 159.175C46.1455 157.768 49.0291 156.703 51.9943 155.924C54.968 155.171 58.0421 154.794 61.1214 154.756C61.8912 154.779 62.663 154.758 63.4302 154.827L65.73 155.039C67.2469 155.287 68.7782 155.484 70.2549 155.914C71.7551 156.255 73.1852 156.817 74.6341 157.302L76.7395 158.205L77.7808 158.676L78.7865 159.217C84.1779 162.045 88.9206 165.904 92.8604 170.385C88.1417 166.734 83.1825 163.49 77.8638 161.141L76.871 160.694L75.8504 160.32L73.8209 159.556C72.4329 159.161 71.0688 158.687 69.6517 158.433C68.2565 158.082 66.8322 157.9 65.415 157.693L63.2734 157.527C62.5599 157.47 61.842 157.509 61.1272 157.489C55.3983 157.472 49.6933 158.818 44.3524 161.099C41.6846 162.252 39.0887 163.615 36.5978 165.174C34.0927 166.717 31.6977 168.457 29.4219 170.386Z" fill="#6E7FDD"/>
<path d="M78.296 150.87L41.3279 187.838L42.647 189.157L79.6151 152.189L78.296 150.87Z" fill="#6E7FDD"/>
<path d="M202.987 16.0309H113.048V73.2454H202.987V16.0309Z" fill="#F5F9FF"/>
<path d="M202.987 16.0309H113.048V23.1667H202.987V16.0309Z" fill="#E2E6FF"/>
<path d="M117.641 21.397C118.543 21.397 119.274 20.6659 119.274 19.7641C119.274 18.8622 118.543 18.1311 117.641 18.1311C116.739 18.1311 116.008 18.8622 116.008 19.7641C116.008 20.6659 116.739 21.397 117.641 21.397Z" fill="#C1D1F4"/>
<path d="M124.773 19.7641C124.773 20.6661 124.042 21.397 123.14 21.397C122.238 21.397 121.507 20.6661 121.507 19.7641C121.507 18.862 122.238 18.1311 123.14 18.1311C124.042 18.1311 124.773 18.862 124.773 19.7641Z" fill="#C1D1F4"/>
<path d="M128.639 21.397C129.541 21.397 130.272 20.6659 130.272 19.7641C130.272 18.8622 129.541 18.1311 128.639 18.1311C127.737 18.1311 127.006 18.8622 127.006 19.7641C127.006 20.6659 127.737 21.397 128.639 21.397Z" fill="#C1D1F4"/>
<path d="M194.971 29.3894H105.033V86.6039H194.971V29.3894Z" fill="#F5F9FF"/>
<path d="M194.971 29.3894H105.033V36.5252H194.971V29.3894Z" fill="#E2E6FF"/>
<path d="M109.627 34.7548C110.528 34.7548 111.26 34.0237 111.26 33.1219C111.26 32.22 110.528 31.4889 109.627 31.4889C108.725 31.4889 107.994 32.22 107.994 33.1219C107.994 34.0237 108.725 34.7548 109.627 34.7548Z" fill="#EB725F"/>
<path d="M116.759 33.1219C116.759 34.0239 116.028 34.7548 115.126 34.7548C114.224 34.7548 113.493 34.0239 113.493 33.1219C113.493 32.2198 114.224 31.4889 115.126 31.4889C116.027 31.4889 116.759 32.2198 116.759 33.1219Z" fill="#F9AB43"/>
<path d="M120.624 34.7548C121.526 34.7548 122.257 34.0237 122.257 33.1219C122.257 32.22 121.526 31.4889 120.624 31.4889C119.722 31.4889 118.991 32.22 118.991 33.1219C118.991 34.0237 119.722 34.7548 120.624 34.7548Z" fill="#6E7FDD"/>
<path d="M166.279 77.762H133.893C132.067 77.762 130.624 77.0324 129.936 75.7603C129.247 74.4883 129.424 72.8813 130.422 71.3526V71.352L146.197 47.1848C147.162 45.7054 148.58 44.8566 150.086 44.8566C151.592 44.8566 153.01 45.7055 153.975 47.1842L169.75 71.3526C170.748 72.8819 170.925 74.4883 170.236 75.7603C169.547 77.0317 168.105 77.762 166.279 77.762ZM133.29 73.2234C132.936 73.7658 132.931 74.0801 132.949 74.1345C132.979 74.1688 133.245 74.3367 133.892 74.3367H166.278C166.925 74.3367 167.191 74.1682 167.227 74.1235C167.239 74.0794 167.234 73.7651 166.881 73.2228L151.106 49.055C150.79 48.5696 150.408 48.28 150.085 48.28C149.762 48.28 149.381 48.5696 149.063 49.0556L133.29 73.2234Z" fill="#EB725F"/>
<path d="M149.093 71.2088C148.832 70.947 148.701 70.6243 148.701 70.2401C148.701 69.8558 148.832 69.5324 149.093 69.2713C149.355 69.0095 149.678 68.8786 150.062 68.8786C150.447 68.8786 150.773 69.0095 151.043 69.2713C151.311 69.5331 151.447 69.8558 151.447 70.2401C151.447 70.625 151.311 70.9477 151.043 71.2088C150.773 71.47 150.447 71.6009 150.062 71.6009C149.678 71.6009 149.355 71.47 149.093 71.2088ZM148.286 55.1281H151.885L151.216 66.6404H148.954L148.286 55.1281Z" fill="#EB725F"/>
<path d="M248.722 26.5816C245.035 23.0222 240.08 21.047 234.964 21.0146C229.671 21.0483 224.528 23.1673 220.821 26.9646C217.066 30.8105 214.982 36.1461 215.193 41.5239C215.329 44.9745 216.369 48.3395 218.191 51.2665C217.526 53.8585 216.861 56.4505 216.196 59.0425C215.876 60.288 217.007 61.4123 218.25 61.0967C221.155 60.3586 224.061 59.6212 226.967 58.8831C231.526 60.8381 236.712 61.1641 241.428 59.5033C245.64 58.02 249.256 55.1701 251.668 51.4084C256.665 43.613 255.367 32.9975 248.722 26.5816ZM250.927 44.7749C249.708 49.6381 246.309 53.6661 241.777 55.7818C239.472 56.8581 236.895 57.3176 234.363 57.2366C232.706 57.1834 231.083 56.864 229.516 56.3255C228.482 55.9697 227.552 55.3139 226.436 55.5712C224.325 56.0572 222.226 56.6099 220.127 57.1594C220.356 56.2684 220.584 55.3781 220.813 54.4871C221.052 53.552 221.313 52.6189 221.533 51.6787C221.658 51.1492 221.7 50.6652 221.428 50.1481C220.919 49.1832 220.281 48.3162 219.843 47.306C216.921 40.559 219.005 32.6359 224.621 28.0014C227.514 25.6135 231.234 24.3771 234.964 24.3538C240.015 24.3855 244.857 26.7028 247.968 30.7113C251.031 34.6596 252.141 39.9291 250.927 44.7749Z" fill="#F9AB43"/>
<path d="M234.942 29.731C228.838 29.731 223.873 34.6966 223.873 40.7994C223.873 46.903 228.838 51.8686 234.942 51.8686C241.045 51.8686 246.01 46.903 246.01 40.7994C246.01 34.6966 241.045 29.731 234.942 29.731ZM227.134 40.8001C227.134 36.4954 230.636 32.9923 234.942 32.9923C236.468 32.9923 237.921 33.4252 239.185 34.2508L228.392 45.0432C227.567 43.7802 227.134 42.3268 227.134 40.8001ZM234.942 48.6078C233.415 48.6078 231.961 48.175 230.698 47.3494L241.491 36.5563C242.316 37.8199 242.749 39.2728 242.749 40.8001C242.749 45.1048 239.247 48.6078 234.942 48.6078Z" fill="#CFD6F9"/>
<path d="M284.968 90.5884C284.304 89.7817 283.659 89.1933 283.172 88.7727C282.546 88.2219 281.919 87.7683 281.385 87.3957C280.236 86.6175 279.037 85.9753 277.823 85.4874C275.569 84.5763 273.176 84.1143 270.691 84.1143C268.176 84.1259 265.846 84.5802 263.567 85.5042C262.345 85.9967 261.144 86.6395 259.996 87.4165C259.473 87.7793 258.854 88.2252 258.223 88.7766C257.731 89.1998 257.083 89.7875 256.422 90.5865L256.008 91.0867L256.422 91.587C257.083 92.386 257.73 92.9718 258.218 93.3923C258.854 93.9489 259.477 94.3961 260.003 94.7622C261.146 95.5353 262.344 96.1761 263.565 96.668C265.845 97.592 268.177 98.0469 270.694 98.0586H270.714C273.177 98.0586 275.568 97.5965 277.821 96.6861C279.038 96.1975 280.24 95.5534 281.396 94.77C281.923 94.4013 282.547 93.9502 283.168 93.404C283.657 92.9802 284.305 92.3912 284.969 91.5844L285.379 91.0854L284.968 90.5884ZM282.136 92.2447C281.567 92.7424 280.991 93.1564 280.505 93.4947C279.449 94.2069 278.348 94.7939 277.234 95.2391C275.139 96.0815 273.006 96.4917 270.698 96.4917C268.386 96.4813 266.246 96.066 264.153 95.2216C263.034 94.7732 261.936 94.1881 260.89 93.485C260.403 93.1487 259.828 92.7372 259.246 92.2311C258.924 91.9557 258.508 91.5857 258.069 91.1153C258.51 90.6429 258.928 90.2722 259.25 89.9955C259.827 89.4939 260.4 89.0844 260.882 88.7507C261.932 88.0437 263.033 87.4573 264.154 87.0076C266.246 86.1639 268.385 85.7485 270.714 85.7381C273.006 85.7381 275.139 86.1477 277.236 86.9907C278.348 87.4353 279.446 88.0204 280.496 88.728C280.987 89.0695 281.566 89.4862 282.14 89.9884C282.462 90.2644 282.878 90.637 283.322 91.1146C282.879 91.5922 282.46 91.9654 282.136 92.2447Z" fill="#F9AB43"/>
<path d="M275.076 90.1231L274.285 90.5625C273.986 90.7284 273.647 90.8165 273.304 90.8165C272.189 90.8165 271.281 89.9086 271.281 88.7934C271.281 88.3606 271.419 87.9465 271.678 87.5953L272.217 86.865L271.318 86.7373C271.085 86.7043 270.887 86.6887 270.694 86.6887C268.269 86.6887 266.296 88.6619 266.296 91.0874C266.296 93.5128 268.269 95.4853 270.694 95.4853C273.12 95.4853 275.092 93.5122 275.092 91.0874C275.092 91.0653 275.091 91.0433 275.09 91.0284L275.076 90.1231Z" fill="#F9AB43"/>
<path d="M279.114 81.8308L261.433 99.5114L262.266 100.344L279.947 82.6638L279.114 81.8308Z" fill="#EB725F"/>
<path d="M55.8225 56.9559C55.2095 56.9559 54.6464 57.0713 54.198 57.2624C54.0198 56.1744 53.5941 55.1726 52.9765 54.314C53.4301 54.1326 53.9096 53.8215 54.3445 53.3867C55.378 52.3538 55.7571 51.0578 55.1927 50.4934C54.6276 49.9284 53.3323 50.3081 52.2994 51.3417C51.8646 51.7765 51.5542 52.256 51.3721 52.7096C50.5135 52.092 49.5117 51.6663 48.4237 51.4881C48.6148 51.0397 48.7302 50.4766 48.7302 49.8636C48.7302 48.4023 48.0828 47.2178 47.2838 47.2178C46.4849 47.2178 45.8375 48.4023 45.8375 49.8636C45.8375 50.4766 45.9529 51.0397 46.144 51.4881C45.056 51.6663 44.0542 52.092 43.1956 52.7096C43.0142 52.256 42.7031 51.7765 42.2683 51.3417C41.2354 50.3087 39.9394 49.929 39.375 50.4934C38.8099 51.0585 39.1897 52.3538 40.2232 53.3867C40.658 53.8215 41.1376 54.1319 41.5912 54.314C40.9736 55.1726 40.5479 56.1744 40.3697 57.2624C39.9213 57.0713 39.3582 56.9559 38.7451 56.9559C37.2839 56.9559 36.0994 57.6033 36.0994 58.4023C36.0994 59.2012 37.2839 59.8486 38.7451 59.8486C39.3582 59.8486 39.9213 59.7333 40.3697 59.5421C40.5479 60.6301 40.9736 61.6319 41.5912 62.4905C41.1376 62.6719 40.658 62.983 40.2232 63.4178C39.1897 64.4507 38.8106 65.7467 39.375 66.3117C39.9401 66.8768 41.2354 66.4971 42.2683 65.4635C42.7031 65.0287 43.0135 64.5492 43.1956 64.0956C44.0542 64.7131 45.056 65.1389 46.144 65.3171C45.9529 65.7655 45.8375 66.3286 45.8375 66.9416C45.8375 68.4028 46.4849 69.5874 47.2838 69.5874C48.0828 69.5874 48.7302 68.4028 48.7302 66.9416C48.7302 66.3286 48.6148 65.7655 48.4237 65.3171C49.5117 65.1389 50.5135 64.7131 51.3721 64.0956C51.5535 64.5492 51.8646 65.0287 52.2994 65.4635C53.3323 66.4971 54.6283 66.8762 55.1927 66.3117C55.7577 65.7467 55.378 64.4513 54.3445 63.4178C53.9096 62.983 53.4301 62.6726 52.9765 62.4905C53.5941 61.6319 54.0198 60.6301 54.198 59.5421C54.6464 59.7333 55.2095 59.8486 55.8225 59.8486C57.2838 59.8486 58.4683 59.2012 58.4683 58.4023C58.4683 57.6033 57.2838 56.9559 55.8225 56.9559ZM47.2832 63.0141C44.7366 63.0141 42.6714 60.9495 42.6714 58.4023C42.6714 55.8556 44.7359 53.7904 47.2832 53.7904C49.8305 53.7904 51.895 55.855 51.895 58.4023C51.895 60.9495 49.8298 63.0141 47.2832 63.0141Z" fill="#6E7FDD"/>
<path d="M78.7183 41.3851C77.8921 41.0527 77.0717 40.9024 76.3635 40.9173C76.7128 39.3556 76.6829 37.7745 76.3162 36.2834C77.0257 36.2847 77.8403 36.126 78.6613 35.7761C80.6131 34.9447 81.8268 33.405 81.3719 32.3378C80.917 31.2705 78.9665 31.08 77.0147 31.9114C76.1931 32.2613 75.5153 32.7389 75.0247 33.2515C74.2031 31.9542 73.0839 30.8377 71.7154 30.0082C72.2163 29.508 72.6764 28.812 73.0088 27.9858C73.8006 26.0178 73.5706 24.0712 72.4943 23.6377C71.4179 23.2049 69.9036 24.449 69.1117 26.4176C68.7793 27.2438 68.6296 28.0642 68.6439 28.7725C67.0822 28.4226 65.5011 28.453 64.01 28.8198C64.0113 28.1102 63.8525 27.2957 63.5026 26.4747C62.6706 24.5229 61.1316 23.3092 60.0643 23.7641C58.9971 24.219 58.8066 26.1695 59.638 28.1212C59.9879 28.9429 60.4654 29.6207 60.978 30.1112C59.6807 30.9329 58.5642 32.052 57.7348 33.4206C57.2345 32.9197 56.5386 32.4596 55.7124 32.1272C53.7444 31.3353 51.7971 31.5654 51.3643 32.6417C50.9314 33.718 52.1756 35.2324 54.1442 36.0242C54.9704 36.3567 55.7908 36.507 56.499 36.4921C56.1498 38.0538 56.1796 39.6349 56.5463 41.126C55.8368 41.1247 55.0222 41.2834 54.2012 41.6333C52.2495 42.4647 51.0357 44.0044 51.4906 45.0716C51.9455 46.1389 53.896 46.3294 55.8484 45.498C56.6701 45.1481 57.3479 44.6705 57.8385 44.1579C58.6601 45.4552 59.7792 46.5717 61.1478 47.4012C60.6469 47.9021 60.1868 48.5974 59.8544 49.4236C59.0625 51.3922 59.2926 53.3388 60.3689 53.7717C61.4452 54.2045 62.9596 52.9604 63.7515 50.9917C64.0839 50.1655 64.2342 49.3452 64.2193 48.6369C65.781 48.9868 67.3615 48.9564 68.8525 48.5896C68.8512 49.2992 69.01 50.1137 69.3599 50.9347C70.1919 52.8865 71.7309 54.1002 72.7982 53.6453C73.8654 53.1904 74.056 51.2399 73.2246 49.2875C72.8747 48.4658 72.3971 47.788 71.8845 47.2975C73.1818 46.4758 74.2983 45.3567 75.1277 43.9882C75.628 44.4891 76.324 44.9491 77.1502 45.2816C79.1181 46.0734 81.0654 45.8434 81.4982 44.7671C81.9311 43.6914 80.6869 42.177 78.7183 41.3851ZM63.9322 44.9167C60.5011 43.5365 58.8396 39.6355 60.2199 36.205C61.6007 32.7739 65.5011 31.1124 68.9316 32.4926C72.3621 33.8729 74.0242 37.7738 72.644 41.2044C71.2637 44.6355 67.3628 46.2976 63.9322 44.9167Z" fill="#6E7FDD"/>
<path d="M207.525 60.8841C207.525 61.6228 206.926 62.2222 206.187 62.2222C205.448 62.2222 204.85 61.6235 204.85 60.8841C204.85 60.1447 205.448 59.5466 206.187 59.5466C206.926 59.5466 207.525 60.1454 207.525 60.8841Z" fill="#EEF1FF"/>
<path d="M182.864 202.844C182.292 203.72 182.285 204.228 182.315 204.317C182.363 204.372 182.792 204.644 183.839 204.644H236.183C237.229 204.644 237.659 204.372 237.716 204.3C237.736 204.229 237.729 203.721 237.157 202.845L211.662 163.783C211.15 162.999 210.533 162.53 210.011 162.53C209.489 162.53 208.872 162.999 208.36 163.783L182.864 202.844Z" fill="#FFCF74"/>
<path d="M236.183 210.179H183.838C180.887 210.179 178.556 209 177.442 206.944C176.329 204.888 176.615 202.291 178.228 199.82L203.724 160.758C205.285 158.367 207.576 156.995 210.01 156.995C212.444 156.995 214.735 158.367 216.295 160.758L241.792 199.82C243.404 202.291 243.691 204.888 242.578 206.944C241.465 209 239.134 210.179 236.183 210.179ZM182.864 202.844C182.292 203.72 182.285 204.228 182.315 204.317C182.363 204.372 182.793 204.644 183.839 204.644H236.183C237.229 204.644 237.659 204.372 237.716 204.3C237.736 204.229 237.729 203.721 237.157 202.845L211.662 163.783C211.15 162.999 210.533 162.53 210.011 162.53C209.489 162.53 208.872 162.999 208.36 163.783L182.864 202.844Z" fill="#EB725F"/>
<path d="M208.407 199.588C207.985 199.165 207.774 198.643 207.774 198.022C207.774 197.4 207.985 196.879 208.407 196.456C208.83 196.034 209.351 195.822 209.973 195.822C210.594 195.822 211.122 196.034 211.559 196.456C211.992 196.879 212.211 197.401 212.211 198.022C212.211 198.643 211.993 199.165 211.559 199.588C211.122 200.01 210.595 200.222 209.973 200.222C209.351 200.222 208.83 200.01 208.407 199.588ZM207.102 173.597H212.919L211.839 192.205H208.183L207.102 173.597Z" fill="#EB725F"/>
<path d="M228.102 124.717H230.687L233.26 128.737V124.717H236.067V133.363H233.482L230.91 129.331V133.363H228.102V124.717ZM241.384 133.549C240.502 133.549 239.702 133.359 238.985 132.98C238.276 132.6 237.715 132.073 237.303 131.396C236.89 130.712 236.684 129.929 236.684 129.046C236.684 128.164 236.89 127.381 237.303 126.696C237.715 126.012 238.276 125.48 238.985 125.101C239.702 124.722 240.502 124.532 241.384 124.532C242.258 124.532 243.05 124.722 243.759 125.101C244.476 125.48 245.041 126.012 245.454 126.696C245.866 127.381 246.072 128.164 246.072 129.046C246.072 129.929 245.866 130.712 245.454 131.396C245.041 132.073 244.476 132.6 243.759 132.98C243.05 133.359 242.258 133.549 241.384 133.549ZM241.384 130.79C241.879 130.79 242.287 130.634 242.609 130.32C242.93 130.007 243.091 129.582 243.091 129.046C243.091 128.51 242.93 128.086 242.609 127.772C242.287 127.459 241.879 127.302 241.384 127.302C240.881 127.302 240.469 127.459 240.147 127.772C239.826 128.086 239.665 128.51 239.665 129.046C239.665 129.582 239.826 130.007 240.147 130.32C240.477 130.634 240.89 130.79 241.384 130.79ZM228.102 143.717H231.417C232.373 143.717 233.21 143.891 233.928 144.237C234.653 144.583 235.214 145.078 235.61 145.721C236.006 146.364 236.204 147.123 236.204 147.997C236.204 149.432 235.775 150.52 234.917 151.262C234.068 151.996 232.901 152.363 231.417 152.363H228.102V143.717ZM231.615 149.642C232.687 149.642 233.223 149.094 233.223 147.997C233.223 147.494 233.083 147.111 232.802 146.847C232.522 146.575 232.126 146.438 231.615 146.438H231.033V149.642H231.615ZM239.229 143.717H242L245.463 152.363H242.458L241.901 150.854H239.328L238.772 152.363H235.766L239.229 143.717ZM241.258 148.702L240.615 146.711L239.972 148.702H241.258ZM246.322 146.179H244.108V143.717H251.468V146.179H249.254V152.363H246.322V146.179ZM253.567 143.717H256.337L259.801 152.363H256.795L256.239 150.854H253.666L253.109 152.363H250.104L253.567 143.717ZM255.595 148.702L254.952 146.711L254.309 148.702H255.595Z" fill="white"/>
</svg>
